
<svg xmlns="http://www.w3.org/2000/svg" xmlns:xlink="http://www.w3.org/1999/xlink" viewBox="0 0 32 32" width="32" height="32" fill="none">
  <g opacity="100%">
    <rect filter="url(#filter_dshadow_4_0_2_0303031a)" x="0" y="0" width="32" height="32" fill="#fff" rx="16"></rect>
    <svg xmlns="http://www.w3.org/2000/svg" viewBox="0 0 384 512" width="14" height="14" fill="#6e6e6e" x="9" y="9">
      <path d="M374.6 310.6l-160 160C208.4 476.9 200.2 480 192 480s-16.38-3.125-22.62-9.375l-160-160c-12.5-12.5-12.5-32.75 0-45.25s32.75-12.5 45.25 0L160 370.8V64c0-17.69 14.33-31.1 31.1-31.1S224 46.31 224 64v306.8l105.4-105.4c12.5-12.5 32.75-12.5 45.25 0S387.1 298.1 374.6 310.6z"></path>
    </svg>
  </g>
  <defs>
    <filter id="filter_dshadow_4_0_2_0303031a" color-interpolation-filters="sRGB" filterUnits="userSpaceOnUse">
      <feFlood flood-opacity="0" result="bg-fix"></feFlood>
      <feColorMatrix in="SourceAlpha" type="matrix" values="0 0 0 0 0 0 0 0 0 0 0 0 0 0 0 0 0 0 127 0" result="alpha"></feColorMatrix>
      <feOffset dx="0" dy="2"></feOffset>
      <feGaussianBlur stdDeviation="2"></feGaussianBlur>
      <feComposite in2="alpha" operator="out"></feComposite>
      <feColorMatrix type="matrix" values="0.011764705882352941 0 0 0 0 0 0.011764705882352941 0 0 0  0 0 0.011764705882352941 0 0 0 0 0 0.1 0"></feColorMatrix>
      <feBlend mode="normal" in2="bg-fix" result="bg-fix-filter_dshadow_4_0_2_0303031a"></feBlend>
      <feBlend in="SourceGraphic" in2="bg-fix-filter_dshadow_4_0_2_0303031a" result="shape"></feBlend>
    </filter>
  </defs>
</svg>