<?xml version="1.0" encoding="UTF-8"?>
<svg version="1.1" xmlns="http://www.w3.org/2000/svg" width="870" height="700">
<path d="M0 0 C344.85 0 689.7 0 1045 0 C1045 202.95 1045 405.9 1045 615 C700.15 615 355.3 615 0 615 C0 412.05 0 209.1 0 0 Z " fill="#fff" transform="translate(0,0)"/>
<path d="M0 0 C1.235224 -0.00845947 2.470448 -0.01691895 3.74310303 -0.02563477 C5.1143049 -0.01980165 6.48550548 -0.01365713 7.85670471 -0.00723267 C9.29891864 -0.01129721 10.74112945 -0.01663843 12.18333435 -0.02316284 C16.10279919 -0.03685761 20.02202755 -0.03152866 23.94149661 -0.02202559 C28.04092984 -0.01443867 32.1403426 -0.02147204 36.23977661 -0.02618408 C43.12563213 -0.03164508 50.01139118 -0.02444166 56.89723206 -0.01016235 C64.85947165 0.00615839 72.82148072 0.0008813 80.78371471 -0.01564157 C87.61692225 -0.02925438 94.45006038 -0.03117692 101.28327709 -0.02332556 C105.36570295 -0.01864707 109.44802047 -0.01802886 113.53043938 -0.02793503 C117.36936991 -0.03659925 121.20800328 -0.03059297 125.0469017 -0.01325226 C126.45620671 -0.00928419 127.8655367 -0.01042697 129.27483177 -0.01704025 C131.19786056 -0.02523246 133.12094397 -0.01313974 135.04394531 0 C136.12039023 0.00113108 137.19683516 0.00226215 138.30589962 0.00342751 C141.52676521 0.44088886 142.89876999 0.97478934 145.08546448 3.38095093 C145.58882904 5.86567688 145.58882904 5.86567688 145.59339905 8.88461304 C145.60467834 10.0287265 145.61595764 11.17283997 145.62757874 12.35162354 C145.61948181 13.60782501 145.61138489 14.86402649 145.6030426 16.15829468 C145.60846236 17.49376184 145.6155842 18.82922302 145.62428284 20.16467285 C145.6425371 23.79282886 145.63544037 27.42053053 145.62276649 31.04869461 C145.61264954 34.84297168 145.62202853 38.63720947 145.62831116 42.43148804 C145.6355914 48.80371089 145.6259901 55.17574839 145.60694885 61.54794312 C145.58517922 68.9183802 145.59223033 76.28837472 145.61425447 83.65880108 C145.63239786 89.98331081 145.63497205 96.3076872 145.6244998 102.63221455 C145.61825895 106.41115385 145.61744524 110.18988504 145.63064575 113.96881104 C145.64218842 117.52138899 145.63420854 121.07339558 145.61106873 124.62591171 C145.60324382 126.55402589 145.61515111 128.48218831 145.62757874 130.41027832 C145.61629944 131.55439178 145.60502014 132.69850525 145.59339905 133.87728882 C145.59189095 134.87353775 145.59038284 135.86978668 145.58882904 136.89622498 C145.08546448 139.38095093 145.08546448 139.38095093 143.43131351 141.20112038 C140.46509248 142.69296326 138.3637032 142.75841361 135.04394531 142.76190186 C133.80590149 142.77036133 132.56785767 142.7788208 131.29229736 142.78753662 C129.92314016 142.78170394 128.55398426 142.77555944 127.18482971 142.76913452 C125.74084577 142.77320023 124.29686495 142.77854211 122.85289001 142.7850647 C118.93355139 142.79874309 115.01444962 142.7934379 111.09510684 142.78392744 C106.9952116 142.77633499 102.89533671 142.78337516 98.79544067 142.78808594 C91.91136531 142.79354408 85.02738651 142.7863497 78.14332581 142.77206421 C70.18047748 142.75573106 62.21785951 142.76103071 54.25501674 142.77754343 C47.42095542 142.7911489 40.58696352 142.79308276 33.75289303 142.78522742 C29.66995501 142.78054655 25.58712535 142.77993748 21.50419426 142.78983688 C17.66689495 142.79849091 13.82989328 142.79251359 9.99262619 142.77515411 C8.58290031 142.77118113 7.17314946 142.77233718 5.76343346 142.77894211 C3.84229796 142.78711464 1.92110783 142.77505863 0 142.76190186 C-1.61410184 142.76020524 -1.61410184 142.76020524 -3.26081181 142.75847435 C-5.91453552 142.38095093 -5.91453552 142.38095093 -7.76038456 141.20112038 C-9.36150433 138.6760527 -9.29209928 136.86069372 -9.29548645 133.87728882 C-9.30394592 132.73317535 -9.3124054 131.58906189 -9.32112122 130.41027832 C-9.31201218 128.5259761 -9.31201218 128.5259761 -9.30271912 126.60360718 C-9.30678392 125.26814342 -9.31212529 123.93268302 -9.31864929 122.597229 C-9.33233974 118.96913807 -9.32701726 115.34130272 -9.31751204 111.71320724 C-9.30992433 107.91893569 -9.31695857 104.12468622 -9.32167053 100.33041382 C-9.32713069 93.9582221 -9.3199297 87.58613464 -9.3056488 81.21395874 C-9.28932172 73.84358776 -9.29461005 66.47346572 -9.31112802 59.10310078 C-9.32473552 52.77860792 -9.32666617 46.45419007 -9.31881201 40.12968731 C-9.31413142 36.35078029 -9.31352116 32.57199035 -9.32342148 28.79309082 C-9.33207825 25.2406052 -9.32609325 21.68844099 -9.30873871 18.13599014 C-9.30287002 16.20787245 -9.31180043 14.27972763 -9.32112122 12.35162354 C-9.31266174 11.20751007 -9.30420227 10.06339661 -9.29548645 8.88461304 C-9.29435537 7.88836411 -9.2932243 6.89211517 -9.29205894 5.86567688 C-8.91453552 3.38095093 -8.91453552 3.38095093 -7.76038456 1.56078148 C-5.12027012 -0.12672796 -3.12311828 0.00328277 0 0 Z " fill="#FAFAFA" transform="translate(377.91453552246094,142.61904907226563)"/>
<path d="M0 0 C1.235224 -0.00845947 2.470448 -0.01691895 3.74310303 -0.02563477 C5.1143049 -0.01980165 6.48550548 -0.01365713 7.85670471 -0.00723267 C9.29891864 -0.01129721 10.74112945 -0.01663843 12.18333435 -0.02316284 C16.10279919 -0.03685761 20.02202755 -0.03152866 23.94149661 -0.02202559 C28.04092984 -0.01443867 32.1403426 -0.02147204 36.23977661 -0.02618408 C43.12563213 -0.03164508 50.01139118 -0.02444166 56.89723206 -0.01016235 C64.85947165 0.00615839 72.82148072 0.0008813 80.78371471 -0.01564157 C87.61692225 -0.02925438 94.45006038 -0.03117692 101.28327709 -0.02332556 C105.36570295 -0.01864707 109.44802047 -0.01802886 113.53043938 -0.02793503 C117.36936991 -0.03659925 121.20800328 -0.03059297 125.0469017 -0.01325226 C126.45620671 -0.00928419 127.8655367 -0.01042697 129.27483177 -0.01704025 C131.19786056 -0.02523246 133.12094397 -0.01313974 135.04394531 0 C136.12039023 0.00113108 137.19683516 0.00226215 138.30589962 0.00342751 C141.52676521 0.44088886 142.89876999 0.97478934 145.08546448 3.38095093 C145.58882904 5.86567688 145.58882904 5.86567688 145.59339905 8.88461304 C145.60467834 10.0287265 145.61595764 11.17283997 145.62757874 12.35162354 C145.61948181 13.60782501 145.61138489 14.86402649 145.6030426 16.15829468 C145.60846236 17.49376184 145.6155842 18.82922302 145.62428284 20.16467285 C145.6425371 23.79282886 145.63544037 27.42053053 145.62276649 31.04869461 C145.61264954 34.84297168 145.62202853 38.63720947 145.62831116 42.43148804 C145.6355914 48.80371089 145.6259901 55.17574839 145.60694885 61.54794312 C145.58517922 68.9183802 145.59223033 76.28837472 145.61425447 83.65880108 C145.63239786 89.98331081 145.63497205 96.3076872 145.6244998 102.63221455 C145.61825895 106.41115385 145.61744524 110.18988504 145.63064575 113.96881104 C145.64218842 117.52138899 145.63420854 121.07339558 145.61106873 124.62591171 C145.60324382 126.55402589 145.61515111 128.48218831 145.62757874 130.41027832 C145.61629944 131.55439178 145.60502014 132.69850525 145.59339905 133.87728882 C145.59189095 134.87353775 145.59038284 135.86978668 145.58882904 136.89622498 C145.08546448 139.38095093 145.08546448 139.38095093 143.43131351 141.20112038 C140.46509248 142.69296326 138.3637032 142.75841361 135.04394531 142.76190186 C133.80590149 142.77036133 132.56785767 142.7788208 131.29229736 142.78753662 C129.92314016 142.78170394 128.55398426 142.77555944 127.18482971 142.76913452 C125.74084577 142.77320023 124.29686495 142.77854211 122.85289001 142.7850647 C118.93355139 142.79874309 115.01444962 142.7934379 111.09510684 142.78392744 C106.9952116 142.77633499 102.89533671 142.78337516 98.79544067 142.78808594 C91.91136531 142.79354408 85.02738651 142.7863497 78.14332581 142.77206421 C70.18047748 142.75573106 62.21785951 142.76103071 54.25501674 142.77754343 C47.42095542 142.7911489 40.58696352 142.79308276 33.75289303 142.78522742 C29.66995501 142.78054655 25.58712535 142.77993748 21.50419426 142.78983688 C17.66689495 142.79849091 13.82989328 142.79251359 9.99262619 142.77515411 C8.58290031 142.77118113 7.17314946 142.77233718 5.76343346 142.77894211 C3.84229796 142.78711464 1.92110783 142.77505863 0 142.76190186 C-1.61410184 142.76020524 -1.61410184 142.76020524 -3.26081181 142.75847435 C-5.91453552 142.38095093 -5.91453552 142.38095093 -7.76038456 141.20112038 C-9.36150433 138.6760527 -9.29209928 136.86069372 -9.29548645 133.87728882 C-9.30394592 132.73317535 -9.3124054 131.58906189 -9.32112122 130.41027832 C-9.31201218 128.5259761 -9.31201218 128.5259761 -9.30271912 126.60360718 C-9.30678392 125.26814342 -9.31212529 123.93268302 -9.31864929 122.597229 C-9.33233974 118.96913807 -9.32701726 115.34130272 -9.31751204 111.71320724 C-9.30992433 107.91893569 -9.31695857 104.12468622 -9.32167053 100.33041382 C-9.32713069 93.9582221 -9.3199297 87.58613464 -9.3056488 81.21395874 C-9.28932172 73.84358776 -9.29461005 66.47346572 -9.31112802 59.10310078 C-9.32473552 52.77860792 -9.32666617 46.45419007 -9.31881201 40.12968731 C-9.31413142 36.35078029 -9.31352116 32.57199035 -9.32342148 28.79309082 C-9.33207825 25.2406052 -9.32609325 21.68844099 -9.30873871 18.13599014 C-9.30287002 16.20787245 -9.31180043 14.27972763 -9.32112122 12.35162354 C-9.31266174 11.20751007 -9.30420227 10.06339661 -9.29548645 8.88461304 C-9.29435537 7.88836411 -9.2932243 6.89211517 -9.29205894 5.86567688 C-8.91453552 3.38095093 -8.91453552 3.38095093 -7.76038456 1.56078148 C-5.12027012 -0.12672796 -3.12311828 0.00328277 0 0 Z M3.08546448 35.38095093 C3.08546448 66.73095093 3.08546448 98.08095093 3.08546448 130.38095093 C45.98546448 130.38095093 88.88546448 130.38095093 133.08546448 130.38095093 C133.08546448 99.03095093 133.08546448 67.68095093 133.08546448 35.38095093 C90.18546448 35.38095093 47.28546448 35.38095093 3.08546448 35.38095093 Z " fill="#BAC0C0" transform="translate(377.91453552246094,142.61904907226563)"/>
<path d="M0 0 C2.61593153 1.83115207 2.96989455 2.90968366 4 6 C4.09686724 7.47561948 4.1391561 8.95517093 4.14717102 10.4339447 C4.15432632 11.34101669 4.16148163 12.24808868 4.16885376 13.18264771 C4.17154266 14.17545746 4.17423157 15.16826721 4.17700195 16.19116211 C4.18357315 17.23856064 4.19014435 18.28595917 4.19691467 19.36509705 C4.21664854 22.83584664 4.2283085 26.30655303 4.23828125 29.77734375 C4.24235678 30.96111666 4.2464323 32.14488956 4.25063133 33.36453438 C4.27148918 39.62607779 4.28579401 45.88759928 4.29516602 52.14916992 C4.30624952 58.62711978 4.3406729 65.10472794 4.38033772 71.58255672 C4.40643156 76.55559444 4.41485126 81.52854969 4.41844749 86.50164986 C4.42332961 88.89032876 4.43498943 91.2790036 4.45348549 93.66761589 C4.47772985 97.00517105 4.47693892 100.34182785 4.4699707 103.67944336 C4.48278076 104.67022888 4.49559082 105.6610144 4.50878906 106.68182373 C4.45767713 113.3793406 4.45767713 113.3793406 2.09562683 116.58253479 C-0.87544878 118.59214654 -2.54775193 119.13011454 -6.09155273 119.17700195 C-6.93681015 119.18983719 -7.78206757 119.20267242 -8.65293884 119.21589661 C-10.02936302 119.22697701 -10.02936302 119.22697701 -11.43359375 119.23828125 C-12.85515526 119.25038887 -12.85515526 119.25038887 -14.30543518 119.26274109 C-16.3187578 119.27659401 -18.33210403 119.28731074 -20.34545898 119.29516602 C-23.39418769 119.31225719 -26.44179714 119.35611718 -29.49023438 119.40039062 C-48.62979316 119.55499762 -48.62979316 119.55499762 -57 115 C-57.99515625 114.45859375 -58.9903125 113.9171875 -60.015625 113.359375 C-69.74498043 106.35151759 -76.54940389 98.5039144 -79.609375 86.63671875 C-81.56170988 73.4584583 -79.95240679 61.72988039 -72.1875 50.625 C-64.90177456 41.74317492 -56.68548161 35.86759183 -45.08984375 34.55859375 C-34.48490439 34.08520428 -26.86081041 35.94042462 -18 42 C-16.31512337 43.64825554 -14.64580029 45.31272499 -13 47 C-12.99589111 45.75387939 -12.99178223 44.50775879 -12.98754883 43.22387695 C-12.96574633 38.59227362 -12.91144485 33.96151846 -12.84741211 29.33032227 C-12.82424189 27.32747539 -12.80983868 25.32450683 -12.80444336 23.3215332 C-12.79514667 20.43884546 -12.75414094 17.55806881 -12.70703125 14.67578125 C-12.7109639 13.78288895 -12.71489655 12.88999664 -12.71894836 11.970047 C-12.61521321 7.53140018 -12.42901114 5.56892671 -9.68237305 1.92651367 C-6.19871679 -0.57549156 -4.20006921 -0.62223248 0 0 Z " fill="#40759D" transform="translate(469,333)"/>
<path d="M0 0 C4.89688447 3.10395611 6.87041783 6.90382768 9.33129883 11.94970703 C9.73192535 12.74687134 10.13255188 13.54403564 10.5453186 14.36535645 C11.86090085 16.99052516 13.15913523 19.62386073 14.45703125 22.2578125 C15.36818142 24.08623019 16.28027904 25.91417602 17.19328308 27.7416687 C19.10095618 31.56620766 21.00071544 35.39453438 22.89428711 39.22607422 C25.3257841 44.14577593 27.7712186 49.05837615 30.2218523 53.9685688 C32.10323178 57.7396244 33.98007 61.51292362 35.85523033 65.28707504 C36.75598777 67.10000805 37.65750823 68.91256215 38.55979347 70.72473526 C39.81597381 73.25078764 41.06669001 75.77946529 42.31567383 78.30908203 C42.69119888 79.06236786 43.06672394 79.81565369 43.45362854 80.59176636 C46 85.77060819 46 85.77060819 46 88 C48.28341743 88.67154684 48.28341743 88.67154684 51 88 C55.56988856 82.51039516 58.43911816 75.3196014 61.53515625 68.94140625 C62.05452255 67.88001938 62.57388885 66.81863251 63.10899353 65.7250824 C64.7642573 62.33953729 66.41337419 58.95103842 68.0625 55.5625 C69.14219676 53.3533292 70.22227199 51.14434333 71.30273438 48.93554688 C72.38048333 46.72930098 73.45795744 44.52292081 74.53515625 42.31640625 C75.06750885 41.22631256 75.59986145 40.13621887 76.14834595 39.01309204 C78.9175115 33.32777517 81.65376418 27.62923656 84.34326172 21.90576172 C84.88333359 20.76195541 85.42340546 19.61814911 85.97984314 18.43968201 C87.00721843 16.2597677 88.02759026 14.07653436 89.03981018 11.88954163 C89.50161179 10.91142014 89.96341339 9.93329865 90.43920898 8.92553711 C90.83865219 8.06818466 91.2380954 7.21083221 91.64964294 6.32749939 C93.15931584 3.72540039 94.69395536 1.93046355 97 0 C100.73505983 -0.53357998 102.95248694 -0.65941767 106.18540955 1.37573242 C109.04158684 5.50634682 108.5652296 9.57952877 108.53344727 14.48828125 C108.54637062 16.0888588 108.54637062 16.0888588 108.55955505 17.72177124 C108.58227557 21.25226022 108.57546494 24.78195943 108.56640625 28.3125 C108.57163889 30.76343015 108.57791404 33.21435827 108.58518982 35.6652832 C108.59560516 40.80331902 108.59101568 45.94107807 108.57641602 51.07910156 C108.559222 57.67041252 108.58272639 64.26085231 108.61790562 70.85206604 C108.63984221 75.91351115 108.63844719 80.97474659 108.6301403 86.03622437 C108.62931884 88.46675574 108.63621935 90.8973022 108.65091133 93.32778931 C108.66828835 96.722981 108.65387014 100.11659135 108.63110352 103.51171875 C108.64864182 105.02359268 108.64864182 105.02359268 108.66653442 106.56600952 C108.57363586 113.35887999 108.57363586 113.35887999 105.65196228 116.62426758 C102.41030535 118.3059101 100.60198092 118.61310314 97 118 C94.15219381 115.76793569 93.15002334 114.45007001 92 111 C91.88340066 109.08345949 91.82333251 107.16327847 91.79467773 105.2434082 C91.7647599 103.47191154 91.7647599 103.47191154 91.73423767 101.66462708 C91.71752518 100.38955795 91.70081268 99.11448883 91.68359375 97.80078125 C91.66281265 96.49545944 91.64203156 95.19013763 91.62062073 93.84526062 C91.56547727 90.37817647 91.51603405 86.91103354 91.46777344 83.44384766 C91.4175019 79.90456931 91.36184537 76.36537611 91.30664062 72.82617188 C91.19915362 65.88418844 91.09768773 58.94212806 91 52 C89.35 51.67 87.7 51.34 86 51 C81.56560921 57.71328921 78.1197361 64.73179485 74.6875 72 C73.5373216 74.41509737 72.38366924 76.82853204 71.23046875 79.2421875 C70.67665527 80.40331055 70.1228418 81.56443359 69.55224609 82.76074219 C56.35813075 110.29448274 56.35813075 110.29448274 52 114 C49.1875 114.625 49.1875 114.625 46 114 C40.24566501 108.33633574 37.12721818 101.76843274 33.68359375 94.5390625 C33.1002255 93.34007514 32.51540587 92.14179299 31.92921448 90.94418335 C29.45998054 85.89342228 27.01551559 80.830865 24.58325195 75.76220703 C23.37695377 73.25044623 22.16118439 70.74369503 20.93507385 68.24154663 C19.78422365 65.89087858 18.64840723 63.53277914 17.52915955 61.16690063 C17.00834305 60.1084494 16.48752655 59.04999817 15.95092773 57.95947266 C15.50047592 57.0235025 15.05002411 56.08753235 14.58592224 55.12319946 C13.14309642 52.78770681 13.14309642 52.78770681 10.44056702 52.06503296 C9.6351799 52.04357208 8.82979279 52.02211121 8 52 C5.33316638 54.66683362 5.74909722 55.9465621 5.74462891 59.67138672 C5.73766998 60.85957001 5.73071106 62.0477533 5.72354126 63.27194214 C5.72453827 64.56149811 5.72553528 65.85105408 5.7265625 67.1796875 C5.71146895 69.1954998 5.69635255 71.21131225 5.67987633 73.22711372 C5.64202593 78.20913597 5.62495262 83.19118553 5.61914062 88.17333984 C5.61412356 91.63829366 5.5898631 95.10268455 5.55381393 98.56744766 C5.53925838 100.52829936 5.54665553 102.48927418 5.55435181 104.45016479 C5.54108856 105.6446524 5.52782532 106.83914001 5.51416016 108.06982422 C5.5098851 109.64629227 5.5098851 109.64629227 5.50552368 111.25460815 C4.86903051 114.71126752 3.7719063 115.89488937 1 118 C-2.73549836 118.53364262 -4.95278679 118.65892987 -8.18640137 116.62426758 C-11.04186328 112.49242937 -10.55701183 108.42047919 -10.51757812 103.51171875 C-10.5245874 102.44466705 -10.53159668 101.37761536 -10.53881836 100.27822876 C-10.55643715 96.74772186 -10.54476117 93.21801519 -10.53125 89.6875 C-10.53394378 87.2365707 -10.53782524 84.78564244 -10.54284668 82.3347168 C-10.54874702 77.1966739 -10.54016112 72.05890904 -10.52148438 66.92089844 C-10.49869501 60.32968515 -10.51181515 53.73912334 -10.53577423 47.14793396 C-10.55021744 42.08649778 -10.5456329 37.02521644 -10.53526306 31.96377563 C-10.53259171 29.53325321 -10.5358798 27.10271679 -10.54518127 24.67221069 C-10.55532207 21.27718784 -10.53987892 17.883225 -10.51757812 14.48828125 C-10.52567505 13.4803653 -10.53377197 12.47244934 -10.54211426 11.43399048 C-10.45944242 4.65216858 -10.45944242 4.65216858 -8.15124512 1.37573242 C-5.17200792 -0.52950523 -3.47605464 -0.56751913 0 0 Z " fill="#3E739C" transform="translate(165,333)"/>
<path d="M0 0 C7.67189608 6.26617599 12.19849276 15.35786912 13.515625 25.0546875 C14.62279738 38.84494534 13.14959174 50.24783704 4.09765625 61.31640625 C-3.28238101 69.42533608 -12.57372449 74.54684327 -23.6484375 75.2578125 C-37.48314834 75.44519007 -48.04998291 72.58198459 -58.5546875 63.20703125 C-67.61744399 53.65386586 -69.82982299 42.48770186 -69.6953125 29.72265625 C-69.0052725 17.72362735 -64.91591325 9.02607355 -56.234375 0.8046875 C-39.38625512 -13.42955881 -17.60668232 -11.72101995 0 0 Z " fill="#BAC0C0" transform="translate(723.484375,376.9453125)"/>
<path d="M0 0 C6.80125693 5.42063572 11.93594723 13.63960375 13.41015625 22.30859375 C13.55357655 24.82672317 13.63057224 27.34905689 13.66015625 29.87109375 C13.68078125 30.54333984 13.70140625 31.21558594 13.72265625 31.90820312 C13.76144707 36.79099751 13.76144707 36.79099751 12.26091003 39.00190735 C9.62056996 40.86606481 7.68426148 40.66905213 4.4699707 40.64916992 C3.24893143 40.64894333 2.02789215 40.64871674 0.76985168 40.64848328 C-1.20837334 40.62525749 -1.20837334 40.62525749 -3.2265625 40.6015625 C-4.58990513 40.59596618 -5.95325379 40.59169625 -7.31660461 40.58869934 C-10.90227967 40.57725324 -14.48758929 40.54778861 -18.07312012 40.5145874 C-21.73294125 40.48388114 -25.39282152 40.47019285 -29.05273438 40.45507812 C-36.23193731 40.42291824 -43.41083929 40.37172528 -50.58984375 40.30859375 C-50.24050781 41.14003906 -49.89117187 41.97148437 -49.53125 42.828125 C-49.07621094 43.91480469 -48.62117188 45.00148438 -48.15234375 46.12109375 C-47.69988281 47.20003906 -47.24742187 48.27898437 -46.78125 49.390625 C-45.98609362 51.33810635 -45.25504727 53.31298318 -44.58984375 55.30859375 C-42.82392488 56.31775408 -42.82392488 56.31775408 -40.58984375 57.30859375 C-39.66171875 57.96859375 -38.73359375 58.62859375 -37.77734375 59.30859375 C-31.1500559 63.46689201 -24.24842363 64.16864817 -16.58984375 63.30859375 C-11.52172699 61.93110561 -6.96565112 60.22579866 -2.58984375 57.30859375 C1.34594675 56.87923479 3.5501337 56.74957909 6.91015625 58.93359375 C8.41015625 61.30859375 8.41015625 61.30859375 8.78515625 64.18359375 C6.54230755 69.28097715 2.27144385 70.94436098 -2.58984375 73.30859375 C-3.4303125 73.72625 -4.27078125 74.14390625 -5.13671875 74.57421875 C-15.20096016 78.90489233 -27.06463246 78.776581 -37.37890625 75.2578125 C-48.74228667 70.37918804 -57.34961435 62.35334163 -62.6171875 51.1171875 C-66.52336697 40.47869873 -65.93389426 27.32906944 -61.84375 16.8828125 C-57.04417281 7.0294749 -48.79164655 -0.87355193 -38.6328125 -5 C-25.69401111 -9.37890602 -11.35406859 -7.41525143 0 0 Z " fill="#3E739C" transform="translate(362.58984375,374.69140625)"/>
<path d="M0 0 C1.42022461 -0.01836914 1.42022461 -0.01836914 2.86914062 -0.03710938 C13.93859034 -0.0599644 21.75816437 2.40822978 31.1875 8.1875 C32.00476563 8.66445313 32.82203125 9.14140625 33.6640625 9.6328125 C38.8373439 12.97807927 38.8373439 12.97807927 39.78125 16.23828125 C39.91041876 19.18225251 39.5108801 21.57878452 38.125 24.1875 C34.9876938 25.80675481 32.5457622 26.05906351 29.1875 25.1875 C26.37126391 23.61359756 23.75793554 21.88064121 21.12890625 20.01171875 C14.52974752 15.9190134 8.59154537 14.65156073 0.875 14.75 C-0.37567261 14.76135986 -0.37567261 14.76135986 -1.65161133 14.77294922 C-13.28657281 15.08273247 -21.63706877 19.18488867 -29.90625 27.22265625 C-39.71294073 37.59652498 -43.33765042 48.75489957 -43.05859375 62.85546875 C-42.17527194 74.81536563 -37.48152429 86.71112069 -28.8125 95.1875 C-19.80829515 101.76312594 -11.78138423 105.77537936 -0.5625 105.6875 C0.26942871 105.68322998 1.10135742 105.67895996 1.95849609 105.67456055 C11.28410584 105.41868043 18.11430629 102.02806559 26 97.3125 C29.22626403 95.4471328 30.19197738 95.1875 34.125 95.1875 C37.1875 96.1875 37.1875 96.1875 39.1875 99.1875 C39.625 102.0625 39.625 102.0625 39.1875 105.1875 C31.89815841 114.52696891 19.21473082 118.90136984 7.90234375 120.8671875 C-8.89044767 122.84849526 -22.06060868 118.84227611 -35.8125 109.1875 C-36.48925781 108.72730469 -37.16601562 108.26710938 -37.86328125 107.79296875 C-48.86410282 99.42222866 -55.9625882 84.59800264 -58.125 71.3125 C-58.39020517 68.94125379 -58.61953082 66.56571472 -58.8125 64.1875 C-58.90789063 63.053125 -59.00328125 61.91875 -59.1015625 60.75 C-59.78773171 44.85976559 -53.69937369 30.35917086 -43.390625 18.37109375 C-30.84173762 5.29608842 -17.95046009 0.01207159 0 0 Z " fill="#B9BFBF" transform="translate(600.8125,331.8125)"/>
<path d="M0 0 C8.31692881 5.26173047 12.86986739 10.43869648 15.6484375 19.94140625 C17.40421196 28.40556424 15.83769044 36.46984821 11.25 43.6875 C6.99784184 49.65076759 2.31282546 53.27172274 -4.9375 54.9375 C-12.87230309 55.84589815 -20.03782641 55.15861747 -26.9375 50.9375 C-33.65022743 45.46166669 -37.2485336 37.84168044 -38.24609375 29.29296875 C-38.49192549 19.87905929 -36.46614866 12.86615339 -29.9375 5.9375 C-21.75555753 -1.19269939 -10.59172461 -4.02436156 0 0 Z " fill="#FAFAFB" transform="translate(441.9375,383.0625)"/>
<path d="M0 0 C5.99018402 3.58404287 10.7026309 8.5492132 12.8984375 15.30859375 C14.52839536 24.3000826 15.16143821 34.4313778 9.78515625 42.21875 C9.31980469 42.7859375 8.85445312 43.353125 8.375 43.9375 C7.26125 45.29875 7.26125 45.29875 6.125 46.6875 C-0.92711125 52.45740921 -6.27927479 54.70543114 -15.546875 54.28515625 C-23.69137544 53.36528247 -29.06535372 49.94093179 -34.625 43.9375 C-40.39954852 35.96629325 -40.86823578 26.45500533 -39.625 16.9375 C-37.05308706 8.77020394 -31.86804104 3.32471343 -24.625 -1.0625 C-17.18563062 -3.54228979 -7.13278974 -3.32137537 0 0 Z " fill="#FBFBFB" transform="translate(708.625,384.0625)"/>
<path d="M0 0 C7.13433617 2.60677668 10.26159609 11.88318311 13.66015625 18.265625 C15.96385414 22.49944815 18.44772868 26.62268042 20.9296875 30.75390625 C22.25 33.1875 22.25 33.1875 22.25 35.1875 C27.1384721 30.81071844 30.34531868 25.65892462 33.8125 20.125 C34.93406722 18.33946499 36.06022533 16.55680379 37.19140625 14.77734375 C37.68326416 13.99222412 38.17512207 13.20710449 38.68188477 12.39819336 C42.87764873 6.4831003 42.87764873 6.4831003 46.68237305 5.66357422 C51.80035446 6.70790132 55.05242557 11.22021758 58.59936523 14.83007812 C60.05647373 16.30639429 61.54048859 17.75105278 63.02929688 19.1953125 C63.95419922 20.1234375 64.87910156 21.0515625 65.83203125 22.0078125 C66.67999268 22.85617676 67.5279541 23.70454102 68.40161133 24.57861328 C70.63708882 27.73385202 70.76686088 29.39850964 70.25 33.1875 C68.5625 35.125 68.5625 35.125 66.25 36.1875 C62.77391295 36.1875 61.50162871 35.41872638 58.9375 33.0625 C58.050625 32.11375 57.16375 31.165 56.25 30.1875 C53.6171454 27.81498364 50.93565795 25.49996479 48.25 23.1875 C42.8565774 27.91326487 39.38154066 33.86306693 35.5625 39.875 C34.2273777 41.96359456 32.89023651 44.05090035 31.55078125 46.13671875 C30.96466064 47.05799561 30.37854004 47.97927246 29.7746582 48.9284668 C28.25 51.1875 28.25 51.1875 26.25 53.1875 C23.375 53.625 23.375 53.625 20.25 53.1875 C15.97856038 48.77856769 13.2331913 43.12907856 10.25 37.8125 C9.72921875 36.89210937 9.2084375 35.97171875 8.671875 35.0234375 C4.55838719 27.75212067 4.55838719 27.75212067 3.0546875 24.99902344 C1.2844758 21.48873128 1.2844758 21.48873128 -1.75 19.1875 C-1.99363281 19.85652344 -2.23726563 20.52554688 -2.48828125 21.21484375 C-4.04856815 24.89093766 -5.95864196 28.28575543 -7.9375 31.75 C-8.53208008 32.79812866 -8.53208008 32.79812866 -9.13867188 33.86743164 C-10.33783632 35.97679655 -11.54256049 38.08286237 -12.75 40.1875 C-13.10916504 40.81366211 -13.46833008 41.43982422 -13.83837891 42.08496094 C-19.51003385 51.94753385 -19.51003385 51.94753385 -20.75 53.1875 C-24.74016279 53.58420566 -26.98677481 53.69253904 -30.38061523 51.44677734 C-31.18184814 50.6470752 -31.98308105 49.84737305 -32.80859375 49.0234375 C-33.68837891 48.14816406 -34.56816406 47.27289063 -35.47460938 46.37109375 C-36.81749023 44.98083984 -36.81749023 44.98083984 -38.1875 43.5625 C-39.10982422 42.65886719 -40.03214844 41.75523437 -40.98242188 40.82421875 C-47.66231282 34.05038412 -47.66231282 34.05038412 -48.07446289 29.99462891 C-47.75 27.1875 -47.75 27.1875 -46.6875 25.3125 C-43.39921931 23.40317573 -41.48331378 23.50305914 -37.75 24.1875 C-35.04736097 26.57417288 -32.93899721 29.33418026 -30.75 32.1875 C-28.60619782 34.58665598 -28.60619782 34.58665598 -26.75 36.1875 C-26.09 36.1875 -25.43 36.1875 -24.75 36.1875 C-24.39284912 35.51283691 -24.03569824 34.83817383 -23.66772461 34.14306641 C-22.0143898 31.02924589 -20.35101783 27.92089147 -18.6875 24.8125 C-18.12611328 23.75160156 -17.56472656 22.69070312 -16.98632812 21.59765625 C-5.59736142 0.38163828 -5.59736142 0.38163828 0 0 Z " fill="#BBC1C1" transform="translate(434.75,195.8125)"/>
<path d="M0 0 C42.9 0 85.8 0 130 0 C130 3.96 130 7.92 130 12 C87.1 12 44.2 12 0 12 C0 8.04 0 4.08 0 0 Z " fill="#F9F9F9" transform="translate(381,155)"/>
<path d="M0 0 C3.02238903 0.73674358 4.11742019 2.06539719 6.03515625 4.49609375 C6.52963257 7.72155762 6.52963257 7.72155762 6.52099609 11.58789062 C6.52479279 12.29406021 6.52858948 13.0002298 6.53250122 13.72779846 C6.53989822 16.05726842 6.51853802 18.38548505 6.49609375 20.71484375 C6.49370866 22.33622084 6.49280414 23.95760073 6.49331665 25.57897949 C6.49019011 28.97519257 6.47363673 32.37098307 6.44677734 35.76708984 C6.4127976 40.1184298 6.40514888 44.46930554 6.40666771 48.82076263 C6.40612361 52.16823755 6.39514998 55.51561117 6.38066483 58.86305237 C6.37430463 60.46740452 6.37035975 62.07176813 6.36887741 63.6761322 C6.36453605 65.91905219 6.34701769 68.16148236 6.32568359 70.40429688 C6.31806 71.68018677 6.3104364 72.95607666 6.30258179 74.27062988 C6.0518722 77.29447994 5.74543866 79.0214422 4.03515625 81.49609375 C2.01171875 82.24609375 2.01171875 82.24609375 -0.33984375 82.49609375 C-1.11070312 82.59921875 -1.8815625 82.70234375 -2.67578125 82.80859375 C-5.98718117 82.3565255 -6.93367091 81.1166056 -8.96484375 78.49609375 C-9.46604919 75.18797302 -9.46604919 75.18797302 -9.46655273 71.20483398 C-9.47195572 70.47755096 -9.4773587 69.75026794 -9.48292542 69.00094604 C-9.49541261 66.6017767 -9.47892469 64.20380734 -9.4609375 61.8046875 C-9.46109247 60.13607215 -9.46258117 58.46745644 -9.46534729 56.79884338 C-9.46673121 53.30429138 -9.45417337 49.81014985 -9.43139648 46.31567383 C-9.40298959 41.83410456 -9.40575509 37.35321617 -9.4184866 32.87159634 C-9.42543725 29.42721224 -9.41766195 25.98298586 -9.40522957 22.5386219 C-9.40071062 20.88599311 -9.40038214 19.23334742 -9.40429497 17.58071709 C-9.40720181 15.2727771 -9.39072761 12.9657799 -9.36889648 10.65795898 C-9.3634935 9.3443187 -9.35809052 8.03067841 -9.3525238 6.67723083 C-8.96484375 3.49609375 -8.96484375 3.49609375 -7.6856842 1.57582092 C-5.24585938 0.04497293 -2.82339156 0.08160091 0 0 Z " fill="#3C729B" transform="translate(510.96484375,368.50390625)"/>
<path d="M0 0 C4.4359074 3.56633747 7.47675777 7.96677621 9.57421875 13.265625 C9.57421875 15.245625 9.57421875 17.225625 9.57421875 19.265625 C-6.59578125 19.265625 -22.76578125 19.265625 -39.42578125 19.265625 C-39.42578125 12.1457216 -37.71335953 9.61488933 -33.42578125 4.265625 C-24.96073701 -3.98236683 -10.36046006 -6.38258277 0 0 Z " fill="#F9F9FA" transform="translate(352.42578125,383.734375)"/>
<path d="M0 0 C0.99 0 1.98 0 3 0 C2.54362211 9.46383622 1.81847768 18.67809502 0 28 C-0.99 28 -1.98 28 -3 28 C-3.33 27.01 -3.66 26.02 -4 25 C-4.37125 25.495 -4.7425 25.99 -5.125 26.5 C-7 28 -7 28 -10.0625 28.375 C-11.031875 28.25125 -12.00125 28.1275 -13 28 C-15.82368571 23.76447144 -15.66653757 19.97522686 -15 15 C-13.20353146 12.06576805 -12.0558929 10.52794645 -9 9 C-3.46153846 8.76923077 -3.46153846 8.76923077 -1 10 C-1.01160156 9.36191406 -1.02320313 8.72382813 -1.03515625 8.06640625 C-1.04417969 7.24011719 -1.05320312 6.41382813 -1.0625 5.5625 C-1.07410156 4.73878906 -1.08570313 3.91507812 -1.09765625 3.06640625 C-1 1 -1 1 0 0 Z " fill="#5080A5" transform="translate(462,478)"/>
<path d="M0 0 C2.375 0.875 2.375 0.875 4.375 3.875 C4.97954335 10.02119071 4.37936887 12.92842669 0.375 17.875 C-1.625 19.875 -1.625 19.875 -5.25 20 C-6.36375 19.95875 -7.4775 19.9175 -8.625 19.875 C-9.285 22.185 -9.945 24.495 -10.625 26.875 C-11.615 26.875 -12.605 26.875 -13.625 26.875 C-13.50994258 24.04095415 -13.38322275 21.20820381 -13.25 18.375 C-13.2190625 17.58351563 -13.188125 16.79203125 -13.15625 15.9765625 C-12.89643777 10.69371388 -12.06166294 5.96756131 -10.625 0.875 C-9.635 0.875 -8.645 0.875 -7.625 0.875 C-7.295 1.535 -6.965 2.195 -6.625 2.875 C-6.068125 2.359375 -5.51125 1.84375 -4.9375 1.3125 C-2.625 -0.125 -2.625 -0.125 0 0 Z " fill="#5584A7" transform="translate(273.625,486.125)"/>
<path d="M0 0 C0.99 0 1.98 0 3 0 C2.69365616 4.10465067 2.37887415 8.20861122 2.0625 12.3125 C1.97548828 13.47974609 1.88847656 14.64699219 1.79882812 15.84960938 C1.71181641 16.96787109 1.62480469 18.08613281 1.53515625 19.23828125 C1.456604 20.26993408 1.37805176 21.30158691 1.29711914 22.36450195 C1 25 1 25 0 28 C-0.99 28 -1.98 28 -3 28 C-3.33 27.01 -3.66 26.02 -4 25 C-4.37125 25.495 -4.7425 25.99 -5.125 26.5 C-7 28 -7 28 -10.0625 28.375 C-11.031875 28.25125 -12.00125 28.1275 -13 28 C-15.82368571 23.76447144 -15.66653757 19.97522686 -15 15 C-13.20353146 12.06576805 -12.0558929 10.52794645 -9 9 C-3.46153846 8.76923077 -3.46153846 8.76923077 -1 10 C-0.67 6.7 -0.34 3.4 0 0 Z " fill="#487BA1" transform="translate(629,478)"/>
<path d="M0 0 C0.99 0 1.98 0 3 0 C3 3.96 3 7.92 3 12 C4.32 10.68 5.64 9.36 7 8 C10.39154295 8.16150205 11.58296757 8.58296757 14 11 C14.7358996 15.75767648 14.81413428 20.43849183 12.125 24.5625 C10 27 10 27 8 28 C6.00043389 28.04165763 3.99956611 28.04165763 2 28 C1.34 28 0.68 28 0 28 C-0.99 28 -1.98 28 -3 28 C-2.69127653 24.4579936 -2.37734668 20.91646694 -2.0625 17.375 C-1.97548828 16.37597656 -1.88847656 15.37695312 -1.79882812 14.34765625 C-1.36767947 9.52517874 -0.90214786 4.76269053 0 0 Z " fill="#42769E" transform="translate(535,478)"/>
<path d="M0 0 C-0.66 6.27 -1.32 12.54 -2 19 C-2.99 19 -3.98 19 -5 19 C-5.33 18.01 -5.66 17.02 -6 16 C-6.37125 16.495 -6.7425 16.99 -7.125 17.5 C-9 19 -9 19 -12.0625 19.375 C-13.031875 19.25125 -14.00125 19.1275 -15 19 C-17.69035023 14.96447466 -17.66753875 11.73952515 -17 7 C-12.84330084 -0.35416006 -8.01767381 -1.14538197 0 0 Z " fill="#4A7CA2" transform="translate(594,487)"/>
<path d="M0 0 C-0.66 6.27 -1.32 12.54 -2 19 C-2.99 19 -3.98 19 -5 19 C-5.33 18.01 -5.66 17.02 -6 16 C-6.37125 16.495 -6.7425 16.99 -7.125 17.5 C-9 19 -9 19 -12.0625 19.375 C-13.031875 19.25125 -14.00125 19.1275 -15 19 C-17.47705276 15.28442086 -17.65254367 12.30678823 -17 8 C-15.17092511 4.27150118 -13.60130864 2.41423484 -10.1875 0.0625 C-7 -1 -7 -1 0 0 Z " fill="#5181A6" transform="translate(323,487)"/>
<path d="M0 0 C1.22589844 0.01353516 1.22589844 0.01353516 2.4765625 0.02734375 C3.41628906 0.04474609 3.41628906 0.04474609 4.375 0.0625 C4.2345017 2.8545301 4.08784617 5.64599796 3.9375 8.4375 C3.89818359 9.2315625 3.85886719 10.025625 3.81835938 10.84375 C3.48828125 16.8359375 3.48828125 16.8359375 2.375 19.0625 C1.385 19.0625 0.395 19.0625 -0.625 19.0625 C-0.955 18.4025 -1.285 17.7425 -1.625 17.0625 C-2.615 17.7225 -3.605 18.3825 -4.625 19.0625 C-7.125 19.5 -7.125 19.5 -9.625 19.0625 C-12.23962964 16.1864074 -12.625 14.51331801 -12.625 10.625 C-11.38178184 6.19603531 -9.81667791 4.33202371 -6.625 1.0625 C-4.21954362 -0.14022819 -2.67503047 -0.03821472 0 0 Z " fill="#4F7FA4" transform="translate(481.625,486.9375)"/>
<path d="M0 0 C0.79921875 0.01804687 1.5984375 0.03609375 2.421875 0.0546875 C3.02515625 0.07789063 3.6284375 0.10109375 4.25 0.125 C4.10761163 2.16690981 3.96092972 4.20852045 3.8125 6.25 C3.73128906 7.38695312 3.65007812 8.52390625 3.56640625 9.6953125 C3.27269035 12.8790478 2.81875687 15.98010907 2.25 19.125 C1.26 19.125 0.27 19.125 -0.75 19.125 C-1.08 18.135 -1.41 17.145 -1.75 16.125 C-2.12125 16.62 -2.4925 17.115 -2.875 17.625 C-4.75 19.125 -4.75 19.125 -7.8125 19.5 C-8.781875 19.37625 -9.75125 19.2525 -10.75 19.125 C-13.26475368 15.35286948 -13.19796416 13.60464158 -12.75 9.125 C-11.46154288 5.82415882 -9.9587179 2.90605712 -6.90625 0.93359375 C-4.45155641 0.01308365 -2.61202 -0.07682412 0 0 Z " fill="#487BA1" transform="translate(388.75,486.875)"/>
<path d="M0 0 C3.875 0.5625 3.875 0.5625 5.5859375 1.796875 C7.73470408 4.74003407 7.40415357 7.5092657 7.28515625 11.04296875 C6.59100849 15.30701929 5.24229367 16.84000725 1.875 19.5625 C-2.08200755 20.25671185 -4.09550841 20.16963607 -7.5625 18.125 C-9.90356441 14.28565436 -9.97870398 10.93678852 -9.125 6.5625 C-7.26163981 2.34632556 -4.64591144 0.20572302 0 0 Z " fill="#487AA1" transform="translate(564.125,486.4375)"/>
<path d="M0 0 C2.375 0.8125 2.375 0.8125 4.375 2.8125 C4.931875 2.296875 5.48875 1.78125 6.0625 1.25 C8.375 -0.1875 8.375 -0.1875 11.0625 0 C13.375 0.8125 13.375 0.8125 14.375 2.8125 C14.47220427 4.74800864 14.50477914 6.68705792 14.5 8.625 C14.50386719 10.18154297 14.50386719 10.18154297 14.5078125 11.76953125 C14.38576175 14.56592942 14.00863355 17.09189879 13.375 19.8125 C12.385 19.8125 11.395 19.8125 10.375 19.8125 C10.375 14.5325 10.375 9.2525 10.375 3.8125 C6.17319816 4.3864739 6.17319816 4.3864739 4.375 7.8125 C3.93070562 9.86119074 3.56205805 11.92704293 3.25 14 C2.99863281 15.63001953 2.99863281 15.63001953 2.7421875 17.29296875 C2.62101562 18.12441406 2.49984375 18.95585937 2.375 19.8125 C1.385 19.8125 0.395 19.8125 -0.625 19.8125 C-0.625 14.5325 -0.625 9.2525 -0.625 3.8125 C-4.82680184 4.3864739 -4.82680184 4.3864739 -6.625 7.8125 C-7.06929438 9.86119074 -7.43794195 11.92704293 -7.75 14 C-7.91757812 15.08667969 -8.08515625 16.17335938 -8.2578125 17.29296875 C-8.37898438 18.12441406 -8.50015625 18.95585937 -8.625 19.8125 C-9.615 19.8125 -10.605 19.8125 -11.625 19.8125 C-11.87491456 13.16199576 -11.36455334 7.24263467 -9.625 0.8125 C-8.635 0.8125 -7.645 0.8125 -6.625 0.8125 C-6.625 1.4725 -6.625 2.1325 -6.625 2.8125 C-6.068125 2.296875 -5.51125 1.78125 -4.9375 1.25 C-2.625 -0.1875 -2.625 -0.1875 0 0 Z " fill="#4679A0" transform="translate(355.625,486.1875)"/>
<path d="M0 0 C1.32 0 2.64 0 4 0 C3.67 3.63 3.34 7.26 3 11 C3.99 10.34 4.98 9.68 6 9 C9.0625 8.75 9.0625 8.75 12 9 C14 11 14 11 14.23046875 12.8828125 C14.13250527 17.99472504 13.73618199 22.93874879 13 28 C11.68 27.67 10.36 27.34 9 27 C9.33 21.72 9.66 16.44 10 11 C4.22050436 13.17116083 4.22050436 13.17116083 3.01171875 15.83203125 C2.85123047 16.81236328 2.85123047 16.81236328 2.6875 17.8125 C2.55988281 18.50988281 2.43226563 19.20726562 2.30078125 19.92578125 C2.20152344 20.61027344 2.10226562 21.29476563 2 22 C1.79375 23.155 1.5875 24.31 1.375 25.5 C1.25125 26.325 1.1275 27.15 1 28 C-0.32 28 -1.64 28 -3 28 C-2.45462284 18.55636393 -1.46291615 9.34561968 0 0 Z " fill="#5483A7" transform="translate(512,478)"/>
<path d="M0 0 C1.32 0 2.64 0 4 0 C4 3.63 4 7.26 4 11 C4.66 10.34 5.32 9.68 6 9 C9 8.75 9 8.75 12 9 C14 11 14 11 14.23046875 13.390625 C14.155862 18.35536521 14.05443055 23.12325871 13 28 C11.68 28 10.36 28 9 28 C9.33 22.72 9.66 17.44 10 12 C5.67615189 12.97659041 5.67615189 12.97659041 3 16 C2.20531949 18.95521077 2.20531949 18.95521077 1.8125 22.1875 C1.65394531 23.27417969 1.49539063 24.36085938 1.33203125 25.48046875 C1.22246094 26.31191406 1.11289062 27.14335937 1 28 C-0.32 28 -1.64 28 -3 28 C-2.68783538 25.02079786 -2.37527621 22.04163795 -2.0625 19.0625 C-1.97548828 18.23169922 -1.88847656 17.40089844 -1.79882812 16.54492188 C-1.21918883 11.02761456 -0.61752271 5.51319826 0 0 Z " fill="#5080A5" transform="translate(286,478)"/>
<path d="M0 0 C1.32 0.33 2.64 0.66 4 1 C4.99 4.63 5.98 8.26 7 12 C8.97204625 9.370605 10.61539808 7.06894138 12.1875 4.25 C12.785625 3.1775 13.38375 2.105 14 1 C14.99 1 15.98 1 17 1 C15.50720249 6.17611312 13.18480264 10.50164976 10.5 15.125 C9.69712245 16.52298167 8.89501428 17.92140555 8.09375 19.3203125 C7.73990234 19.93148926 7.38605469 20.54266602 7.02148438 21.17236328 C5.95151524 23.08674879 4.96652724 25.03165099 4 27 C3.01 27 2.02 27 1 27 C1.309375 26.278125 1.61875 25.55625 1.9375 24.8125 C4.11476114 19.04916168 3.93669262 15.81940892 2.0625 9.875 C0 3.26101695 0 3.26101695 0 0 Z " fill="#4F7FA4" transform="translate(418,486)"/>
<path d="M0 0 C4.875 0.875 4.875 0.875 6 2 C6.46095527 9.02956785 6.46095527 9.02956785 4.8125 12.5 C3 14 3 14 0.4375 14.375 C-2 14 -2 14 -4 12 C-4.48602588 7.70677141 -4.46241608 5.67917361 -2 2.0625 C-1.34 1.381875 -0.68 0.70125 0 0 Z " fill="#F4F6F8" transform="translate(562,489)"/>
<path d="M0 0 C0.66 0.33 1.32 0.66 2 1 C2 1.66 2 2.32 2 3 C0.63875 2.87625 0.63875 2.87625 -0.75 2.75 C-4.00746583 2.74580637 -4.00746583 2.74580637 -6.375 4.5 C-8.73613198 8.13251074 -8.2854378 10.71843297 -8 15 C-4.65747276 15.07427838 -2.1964086 15.06546953 1 14 C0.625 15.9375 0.625 15.9375 0 18 C-3.19954081 19.59977041 -6.52755346 19.48997712 -10 19 C-13.03776165 16.72167876 -13.00725999 14.95079342 -13.5625 11.1875 C-13.38487312 6.88408504 -11.72795966 4.34869893 -8.79296875 1.28125 C-5.87323749 -0.80518106 -3.43412731 -0.52832728 0 0 Z " fill="#5584A7" transform="translate(411,487)"/>
<path d="M0 0 C-0.49333007 7.96132664 -0.49333007 7.96132664 -2.25 11.5625 C-4 13 -4 13 -6.625 13.3125 C-9 13 -9 13 -10 12 C-10.38126226 7.04359066 -10.13574426 3.948715 -7 0 C-3.86650268 -1.04449911 -3.01031744 -0.93423645 0 0 Z " fill="#F2F5F7" transform="translate(627,490)"/>
<path d="M0 0 C-0.49333007 7.96132664 -0.49333007 7.96132664 -2.25 11.5625 C-4 13 -4 13 -6.625 13.3125 C-9 13 -9 13 -10 12 C-10.38126226 7.04359066 -10.13574426 3.948715 -7 0 C-3.86650268 -1.04449911 -3.01031744 -0.93423645 0 0 Z " fill="#F2F5F7" transform="translate(460,490)"/>
<path d="M0 0 C1.32 0 2.64 0 4 0 C4.92053993 4.69475367 5.31904262 7.72807938 3 12 C1 14 1 14 -2.125 14.125 C-3.548125 14.063125 -3.548125 14.063125 -5 14 C-5.45772527 8.27843418 -4.54034087 5.50588838 -1 1 C-0.67 0.67 -0.34 0.34 0 0 Z " fill="#F3F6F7" transform="translate(541,489)"/>
<path d="M0 0 C0.33 0.99 0.66 1.98 1 3 C-1.31 3 -3.62 3 -6 3 C-6.33 4.32 -6.66 5.64 -7 7 C-6.030625 7.309375 -5.06125 7.61875 -4.0625 7.9375 C-1 9 -1 9 0 10 C0.26077823 12.99894961 0.43731576 15.18003295 -1 17.875 C-4.25313684 19.70488947 -7.31390109 19.18128355 -11 19 C-11.33 17.68 -11.66 16.36 -12 15 C-9.69 15.33 -7.38 15.66 -5 16 C-4.67 14.68 -4.34 13.36 -4 12 C-5.4540625 11.13375 -5.4540625 11.13375 -6.9375 10.25 C-10 8 -10 8 -11.125 6 C-11 4 -11 4 -9.5 1.75 C-6.20608508 -0.55574044 -3.93293957 -0.30253381 0 0 Z " fill="#4D7EA3" transform="translate(503,487)"/>
<path d="M0 0 C2.125 0.9375 2.125 0.9375 4 2 C3.40425532 9.14893617 3.40425532 9.14893617 1.8125 12.5 C-0.7706905 14.63781283 -2.75340408 14.2885863 -6 14 C-6.49029622 6.76813075 -6.49029622 6.76813075 -4.125 3.0625 C-2 1 -2 1 0 0 Z " fill="#F4F6F7" transform="translate(271,489)"/>
<path d="M0 0 C0.33406575 4.17582188 0.20564042 6.58871916 -1.6875 10.375 C-4 13 -4 13 -6.6875 13.9375 C-7.450625 13.958125 -8.21375 13.97875 -9 14 C-10 13 -10 13 -10.3125 9.75 C-9.95354121 5.44249452 -9.00888412 4.00888412 -6 1 C-4 0 -4 0 0 0 Z " fill="#EFF3F5" transform="translate(590,489)"/>
<path d="M0 0 C0.49940808 6.11774896 -0.75099398 9.02495953 -4 14 C-5.65 14 -7.3 14 -9 14 C-10.05328453 9.61131447 -10.36351957 7.67689851 -8.1875 3.625 C-5.18719633 0.0246356 -4.78766263 0 0 0 Z " fill="#F0F3F6" transform="translate(389,489)"/>
<path d="M0 0 C0.33406575 4.17582188 0.20564042 6.58871916 -1.6875 10.375 C-4 13 -4 13 -6.75 13.875 C-7.4925 13.91625 -8.235 13.9575 -9 14 C-10.42662219 11.14675563 -10.31033868 9.16545451 -10 6 C-6.94027864 1.41041796 -5.58876744 0 0 0 Z " fill="#F1F4F6" transform="translate(319,489)"/>
<path d="M0 0 C0.43177893 6.26079448 -0.07260562 9.09075703 -4 14 C-5.65 13.67 -7.3 13.34 -9 13 C-9.32470459 8.86001651 -9.4304413 6.66000999 -7.125 3.125 C-4.46977076 0.46977076 -3.77109367 0 0 0 Z " fill="#F8F9FA" transform="translate(482,489)"/>
<path d="M0 0 C4.75 0.75 4.75 0.75 7 3 C7.7358996 7.75767648 7.81413428 12.43849183 5.125 16.5625 C3 19 3 19 1 20 C-0.99960012 20.039992 -3.00047242 20.04346799 -5 20 C-4.505 18.515 -4.505 18.515 -4 17 C-3.195625 16.71125 -2.39125 16.4225 -1.5625 16.125 C1.14933168 15.22904439 1.14933168 15.22904439 2.3125 12.8125 C3.13042189 9.46645592 3.13458258 6.43185585 3 3 C1.68 3 0.36 3 -1 3 C-0.67 2.01 -0.34 1.02 0 0 Z " fill="#5080A5" transform="translate(542,486)"/>
<path d="M0 0 C0 0.66 0 1.32 0 2 C-1.7015625 2.6496875 -1.7015625 2.6496875 -3.4375 3.3125 C-4.613125 3.869375 -5.78875 4.42625 -7 5 C-8.1577506 8.47325181 -8.06866652 11.36067448 -8 15 C-4.37114676 15.15149298 -4.37114676 15.15149298 -1 14 C-2.875 17.875 -2.875 17.875 -4 19 C-6.9375 19.25 -6.9375 19.25 -10 19 C-12.82368571 14.76447144 -12.66653757 10.97522686 -12 6 C-8.61572282 0.47234727 -6.25681202 -0.13601765 0 0 Z " fill="#477AA0" transform="translate(459,487)"/>
<path d="M0 0 C0.99 0 1.98 0 3 0 C3.33 0.66 3.66 1.32 4 2 C4.66 1.34 5.32 0.68 6 0 C7.32 0 8.64 0 10 0 C10 0.99 10 1.98 10 3 C9.21625 3.2475 8.4325 3.495 7.625 3.75 C4.54351015 5.21737612 4.21867841 5.90977976 3 9 C2.55188863 11.35564596 2.55188863 11.35564596 2.375 13.75 C2.30023437 14.54921875 2.22546875 15.3484375 2.1484375 16.171875 C2.09945312 16.77515625 2.05046875 17.3784375 2 18 C0.68 18.33 -0.64 18.66 -2 19 C-1.34 12.73 -0.68 6.46 0 0 Z " fill="#45789F" transform="translate(601,487)"/>
<path d="M0 0 C0.99 0 1.98 0 3 0 C3.33 0.66 3.66 1.32 4 2 C4.66 1.34 5.32 0.68 6 0 C7.32 0 8.64 0 10 0 C10 0.99 10 1.98 10 3 C9.21625 3.2475 8.4325 3.495 7.625 3.75 C4.52676805 5.22534855 4.24760013 5.90251002 3 9 C2.57336714 10.73813388 2.19923141 12.48988665 1.875 14.25 C1.70742188 15.14203125 1.53984375 16.0340625 1.3671875 16.953125 C1.24601562 17.62859375 1.12484375 18.3040625 1 19 C0.01 19 -0.98 19 -2 19 C-1.50873071 12.63440427 -1.00344253 6.30735307 0 0 Z " fill="#45789F" transform="translate(330,487)"/>
<path d="M0 0 C0 0.66 0 1.32 0 2 C-1.423125 2.6496875 -1.423125 2.6496875 -2.875 3.3125 C-6.20041937 4.79302201 -6.20041937 4.79302201 -8 8 C-8.24055468 10.05709596 -8.24055468 10.05709596 -8.125 12.1875 C-8.08375 13.445625 -8.0425 14.70375 -8 16 C-6.35 16 -4.7 16 -3 16 C-3.33 16.99 -3.66 17.98 -4 19 C-6.875 19.1875 -6.875 19.1875 -10 19 C-12.47241989 15.29137017 -12.66668695 12.30094385 -12 8 C-10.32878056 4.77693394 -8.99511351 2.68414054 -6 0.625 C-4 0 -4 0 0 0 Z " fill="#497BA1" transform="translate(318,487)"/>
<path d="M0 0 C0.99 0.33 1.98 0.66 3 1 C2.05125 1.639375 1.1025 2.27875 0.125 2.9375 C-3.90236477 6.26362949 -4.30758663 10.02721307 -5 15 C-5.20625 16.010625 -5.4125 17.02125 -5.625 18.0625 C-5.74875 18.701875 -5.8725 19.34125 -6 20 C-6.99 20 -7.98 20 -9 20 C-9.24991456 13.34949576 -8.73955334 7.43013467 -7 1 C-6.01 1 -5.02 1 -4 1 C-4 1.66 -4 2.32 -4 3 C-3.401875 2.484375 -2.80375 1.96875 -2.1875 1.4375 C-1.465625 0.963125 -0.74375 0.48875 0 0 Z " fill="#5080A5" transform="translate(353,486)"/>
<path d="M0 0 C2.31 0.33 4.62 0.66 7 1 C6.34 7.27 5.68 13.54 5 20 C4.01 20 3.02 20 2 20 C2 18.35 2 16.7 2 15 C1.34 14.67 0.68 14.34 0 14 C0.32742188 13.43796875 0.65484375 12.8759375 0.9921875 12.296875 C2.11785494 9.73140036 2.2068111 8.03157723 2.125 5.25 C2.10695313 4.45078125 2.08890625 3.6515625 2.0703125 2.828125 C2.04710937 2.22484375 2.02390625 1.6215625 2 1 C1.34 0.67 0.68 0.34 0 0 Z " fill="#5282A6" transform="translate(587,486)"/>
<path d="M0 0 C2.4375 0.875 2.4375 0.875 4.4375 3.875 C4.91114652 8.69040624 4.92949653 10.92614955 2.6875 15.25 C0.62808525 17.65265055 -0.6265405 18.82644304 -3.5625 19.875 C-2.55482656 17.35581639 -1.55112327 14.84971838 -0.4375 12.375 C0.49438223 9.71247934 0.59743416 7.67384788 0.4375 4.875 C-1.5425 4.215 -3.5225 3.555 -5.5625 2.875 C-3.71830214 0.44842386 -3.12817806 -0.15259405 0 0 Z " fill="#4C7DA3" transform="translate(273.5625,486.125)"/>
<path d="M0 0 C2.875 -0.125 2.875 -0.125 6 0 C8 2 8 2 8.23046875 3.8828125 C8.13250527 8.99472504 7.73618199 13.93874879 7 19 C5.68 18.67 4.36 18.34 3 18 C3.33 12.72 3.66 7.44 4 2 C2.68 2.33 1.36 2.66 0 3 C0 2.01 0 1.02 0 0 Z " fill="#45789F" transform="translate(518,487)"/>
<path d="M0 0 C4.70588235 0.70588235 4.70588235 0.70588235 6 2 C6.33111384 7.71658302 6.21293283 13.39018566 5 19 C3.68 19 2.36 19 1 19 C1.10699219 17.86820312 1.21398437 16.73640625 1.32421875 15.5703125 C1.44613108 14.08860879 1.56718016 12.60683388 1.6875 11.125 C1.76033203 10.37863281 1.83316406 9.63226563 1.90820312 8.86328125 C2.12852985 6.44341402 2.12852985 6.44341402 2 3 C1.01 2.34 0.02 1.68 -1 1 C-0.67 0.67 -0.34 0.34 0 0 Z " fill="#487AA1" transform="translate(294,487)"/>
<path d="M0 0 C0 0.99 0 1.98 0 3 C-2.90600261 4.25664978 -4.79604584 5 -8 5 C-5.92852697 0.85705393 -4.76663774 0 0 0 Z " fill="#4D7EA3" transform="translate(611,487)"/>
<path d="M0 0 C0 0.99 0 1.98 0 3 C-2.90600261 4.25664978 -4.79604584 5 -8 5 C-5.92852697 0.85705393 -4.76663774 0 0 0 Z " fill="#4D7EA3" transform="translate(340,487)"/>
<path d="M0 0 C2.31 0.33 4.62 0.66 7 1 C7 1.66 7 2.32 7 3 C4.36 3 1.72 3 -1 3 C-0.67 2.01 -0.34 1.02 0 0 Z " fill="#45789F" transform="translate(406,487)"/>
</svg>
